<?xml version="1.0" encoding="utf-8"?>
<!-- Generator: Adobe Illustrator 25.2.3, SVG Export Plug-In . SVG Version: 6.00 Build 0)  -->
<svg version="1.1" id="Ebene_1" xmlns="http://www.w3.org/2000/svg" xmlns:xlink="http://www.w3.org/1999/xlink" x="0px" y="0px"
	 viewBox="0 0 715.6 712.5" style="enable-background:new 0 0 715.6 712.5;" xml:space="preserve">
<style type="text/css">
	.st0{fill:#FFFFFF;}
</style>
<g id="Ebene_2_1_">
	<g id="Ebene_1-2">
		<path class="st0" d="M364.6,348.7h-90c-3.4,0-2.9,0.3-2.9-3c0-19.4-0.1-38.9,0-58.3c0-3.5-2.2-7.1-5.5-8.2
			c-1.2-0.3-2.3-0.5-3.5-0.6c-5-0.3-7.9-3.4-7.9-8.4v-46.6c-0.2-4.5,3.3-8.2,7.7-8.4h161.2c3.3-0.1,6.5,1.3,8.7,3.7
			c12.6,12.8,25.3,25.6,38,38.3c2.1,2,3.3,4.8,3.2,7.7c-0.1,21-0.1,41.9,0,62.9c0.1,2.8-1,5.6-3.1,7.5c-3.9,3.8-7.8,7.6-11.5,11.5
			c-1.2,1.3-2.8,2-4.6,1.9C424.5,348.7,394.6,348.7,364.6,348.7z M348.8,299.2v13.7c0,4.8,3.3,8.3,8,8.3c9.1,0.1,18.2,0,27.3,0
			c2,0,4-0.8,5.4-2.2c1.3-1.3,2.6-2.6,3.9-3.9c2-1.9,3.2-4.5,3.1-7.3c-0.1-4.5,0-9,0-13.4c0-8,0.7-7.7-5.9-14.2
			c-2-2.1-4.8-3.2-7.7-3.1c-8.3,0.1-16.6,0-24.9,0c-0.6,0-1.1,0-1.7,0.1c-4.3,0.2-7.6,3.8-7.5,8.1
			C348.8,290,348.8,294.6,348.8,299.2z"/>
		<path class="st0" d="M119,215.3h109.4c6.4-0.4,9.6,4.5,9.5,9.5c-0.2,20.6-0.1,41.1-0.1,61.7c0,4.5-2.3,7.6-6.4,8.7
			c-1,0.2-2.1,0.3-3.1,0.2h-43.9c-5.6,0-9.5-3.7-9.6-9.4c0-1.8-0.5-3.7-1.5-5.2c-2.2-3.1-6.2-4.4-9.8-3.2c-3.3,1.1-5.6,4-5.8,7.5
			v61.9c0,1.8,0,1.8-1.9,1.8H81.8c-0.9,0-1.3-0.3-1.3-1.2v-61.2c0.1-1.9-0.4-3.8-1.4-5.5c-2.2-3.1-5.9-4.4-10-3.3
			c-3.4,0.9-5.8,4-6,7.5c0,2.1-0.5,4.2-1.5,6c-1.4,2.8-4.3,4.4-7.5,4.4H9c-5.6,0-8.9-3.3-8.9-8.9c0-20.4,0.1-40.8-0.1-61.2
			c-0.1-6.1,3.8-10,9.8-9.9C46.2,215.4,82.6,215.3,119,215.3z"/>
		<path class="st0" d="M691,348.7H504.8c-3.2,0-2.8,0.4-2.8-2.8c0-27,0-54,0-80.9c-0.1-2.9,1.1-5.7,3.2-7.7
			c9.9-9.9,19.8-19.8,29.6-29.8c2.8-2.8,5.8-5.6,8.4-8.5c2.2-2.5,5.5-3.9,8.9-3.8c21.5,0.1,43,0,64.5,0c16.2,0,32.5,0.1,48.7,0
			c3.5-0.1,6.8,1.3,9.1,3.8c12.2,12.4,24.5,24.6,36.7,36.9c0.8,0.8,1.6,1.6,2.3,2.4c1.4,1.5,2.1,3.4,2.1,5.5V298
			c0.1,4.1-3,7.6-7.1,8c-0.9,0.1-1.9,0.2-2.9,0.2h-57.4c-0.9,0-1.8-0.1-2.6-0.2c-4.2-0.1-7.3-4.3-7.2-8.1c0.1-2.6,0-5.1,0-7.7
			c0.1-2.5-0.9-4.9-2.7-6.7c-1.1-1.1-2.2-2.3-3.3-3.5c-1.7-1.9-4.1-2.9-6.6-2.8h-9.6c-7.8,0-15.5,0.1-23.3,0c-3-0.2-5.9,1-7.9,3.2
			c-1,1.1-2.2,2.1-3.2,3.2c-1.7,1.7-2.7,4-2.6,6.5c0.1,9.7,0,19.4,0,29c0,5.4,3.3,8.7,8.7,8.7h33.1c15,0,30.1,0,45.1,0
			c3-0.1,5.9,1.1,7.9,3.3c5.1,5.2,10.3,10.3,15.4,15.4C690,347.2,690.6,347.9,691,348.7z"/>
		<path class="st0" d="M608.8,496.5c-19,0-38.1,0-57.1,0c-3.2,0.1-6.3-1.2-8.5-3.6c-12.4-12.5-24.8-24.9-37.3-37.3
			c-0.9-0.8-1.7-1.7-2.4-2.7c-1.1-1.3-1.6-3-1.6-4.7V415c0-1.8,0-1.8,1.8-1.8h73.6c1.8,0,1.8,0,1.8,1.8s0.1,3.8,0,5.8
			c-0.1,2.3,0.8,4.5,2.5,6c1.3,1.4,2.7,2.7,4.1,4c1.6,1.5,3.7,2.4,5.8,2.4h34.5c2.2,0,4.3-0.9,5.8-2.4c1.3-1.3,2.6-2.6,3.9-3.9
			c1.6-1.6,2.5-3.8,2.4-6c-0.1-2.1,0-4.2,0-6.2c0-1,0.4-1.5,1.4-1.4h73.2c3.2,0,2.7-0.3,2.7,2.6c0,10.4-0.1,20.8,0,31.2
			c0.2,2.9-1,5.8-3.1,7.8c-8,7.9-16,15.9-24,23.9c-4.9,4.9-9.8,9.7-14.5,14.6c-2,2.2-4.9,3.4-7.9,3.3
			C647,496.5,627.9,496.5,608.8,496.5z"/>
		<path class="st0" d="M118.9,496.5h-47c-3.7,0.1-7.1-2.2-8.3-5.7c-0.2-0.8-0.4-1.7-0.3-2.6v-46.8c0-4.8,3.2-8.2,8-8.3
			c3.4-0.1,6.2-1.1,8.1-4.2c0.8-1.4,1.2-3,1.1-4.6v-9.6c0-1.2,0.3-1.7,1.6-1.6c2.5,0.1,5,0,7.4,0h66c2.2,0,2.1-0.1,2.1,2.1v9.1
			c0.1,5.2,3.3,8.6,8.5,8.7c3.2-0.1,6.2,1.6,7.6,4.5c0.6,1.2,0.9,2.6,0.9,3.9V488c0,5-3.4,8.4-8.4,8.4h-42.9L118.9,496.5z"/>
		<path class="st0" d="M310,496.5h-46.5c-3.2,0-5.8-1.1-7.5-3.9c-0.8-1.2-1.2-2.6-1.2-4.1v-47.5c0-4.2,3.3-7.7,7.5-7.9
			c0.7-0.1,1.4,0,2.1-0.1c4.1-0.4,7.2-3.8,7.2-7.9c0.1-3.4,0.1-6.9,0-10.3c0-1.3,0.4-1.8,1.6-1.6h73c3,0,2.6-0.2,2.6,2.5v9.4
			c0,4.2,3.2,7.7,7.4,8c0.6,0.1,1.1,0,1.7,0.1c4.4,0.1,7.9,3.7,7.8,8.1c0,0,0,0,0,0v47c0,4.9-3.5,8.2-8.4,8.2
			C341.6,496.5,325.8,496.5,310,496.5z"/>
		<path class="st0" d="M443.6,496.5h-38.6c-3.3,0.1-6.3-1.7-7.7-4.8c-0.6-1.3-0.8-2.8-0.7-4.2v-72.2c0-2.1,0-2.1,2.1-2.1h72.9
			c2.1,0,2.1,0,2.1,2.1v9.1c0,5.2,3.2,8.6,8.4,8.8c3,0.1,5.5,1.1,7.1,3.6c0.9,1.3,1.3,2.8,1.3,4.3v47.5c0,4.7-3.5,7.9-8.4,7.9
			C469.3,496.5,456.4,496.5,443.6,496.5z"/>
		<path class="st0" d="M461.9,393.4c0,2.7,0,5.4,0,8.1c0,1.2-0.5,1.5-1.6,1.5c-3.6,0-7.2,0-10.8,0h-3.6c-1,0-1.5-0.2-1.5-1.3
			c0-2.4,0-4.8,0-7.2c0-0.9,0.3-1.4,1.2-1.3s1.5-0.1,1.5-1.3c0-3.2,0-6.3-0.2-9.6c-3.4,4.8-6.2,9.9-9.6,15.1
			c-3.1-5.2-6.2-10.2-9.2-15.2c-0.8,0.5-0.5,1.1-0.5,1.6v7.9c0,0.9,0.1,1.6,1.3,1.5s1.5,0.5,1.5,1.5c-0.1,2.3,0,4.6,0,7
			c0,0.9-0.3,1.3-1.2,1.3h-14.9c-0.9,0-1.3-0.3-1.3-1.2v-8.4c0.4-0.1,0.7-0.1,1.1-0.2c1.1,0.1,1.5-0.3,1.5-1.5v-21.3
			c0-1-0.1-1.8-1.4-1.6c-0.9,0.1-1.3-0.3-1.3-1.2v-7.4c0-1,0.4-1.2,1.3-1.2c3.8,0,7.7,0.1,11.5,0c1,0,1.8,0.6,2.2,1.5l8,13.4
			c0.3,0.8,0.8,1.5,1.5,2c0.6-0.6,1.1-1.3,1.4-2c2.6-4.4,5.3-8.8,7.9-13.2c0.5-1.1,1.6-1.8,2.8-1.7c3.6,0.1,7.2,0.1,10.8,0
			c1.1,0,1.6,0.2,1.6,1.5c-0.1,2.4,0,4.8,0,7.2c0,0.7-0.1,1.3-1,1.2c-1.5-0.2-1.6,0.7-1.6,1.9v19.9C459.2,393,459.2,393,461.9,393.4
			z"/>
		<path class="st0" d="M133.7,383.3v8.8c0,0.8,0.4,1.2,1.2,1.1c1.2-0.1,1.5,0.5,1.4,1.5c-0.1,2.3,0,4.6,0,7c0,0.9-0.3,1.3-1.2,1.3
			H120c-0.9,0-1.1-0.4-1.1-1.2v-7.4c0-1,0.4-1.3,1.3-1.2c1.1,0.1,1.4-0.3,1.4-1.4v-21.6c0-1.2-0.4-1.6-1.5-1.5
			c-0.8,0.1-1.1-0.3-1.1-1.1V360c0-0.8,0.3-1.1,1.2-1.1h12.2c1.1,0,1.5,0.8,1.9,1.6c3.2,5.5,6.3,10.9,9.5,16.4
			c0.4,0.7,0.9,1.4,1.4,2.2c0.8-0.5,0.5-1.1,0.5-1.6v-7.2c0-1-0.2-1.6-1.3-1.4s-1.3-0.4-1.3-1.4c0-2.3,0-4.6,0-7
			c0-1.1,0.2-1.6,1.4-1.6c4.8,0.1,9.6,0,14.4,0c1.1,0,1.6,0.2,1.6,1.5c-0.1,2.3,0,4.6,0,7c0,0.9-0.1,1.6-1.3,1.5s-1.5,0.5-1.5,1.5
			v21.3c0,1.1,0.4,1.7,1.5,1.5c0.9-0.1,1.3,0.3,1.2,1.2v7.2c0,0.8-0.2,1.4-1.2,1.3h-12.4c-1.1,0-1.4-0.8-1.9-1.6l-7.2-12.4
			c-1.1-1.9-2.2-3.8-3.4-5.7L133.7,383.3z"/>
		<path class="st0" d="M629.5,381v-10.4c0-1.1,0-2.1-1.6-1.9c-0.8,0.1-1.1-0.4-1.1-1.1v-7.4c0-0.9,0.3-1.3,1.2-1.3h14.4
			c1.7,0,1.7,0,1.7,1.8v6.7c0,1-0.2,1.5-1.3,1.4c-0.9-0.1-1.3,0.3-1.3,1.2v3.8c0,0.8,0.3,1.2,1.1,1.1h6.5c0.8,0,1.2-0.3,1.1-1.1
			c0-1-0.1-2.1,0-3.1c0.1-1.3-0.1-2.2-1.7-2c-0.7,0.1-1-0.4-1-1V360c0-0.8,0.4-1.1,1.2-1.1h15.1c1,0,1.2,0.5,1.2,1.4v7
			c0,1.1-0.2,1.7-1.4,1.6s-1.3,0.5-1.3,1.5v21.3c0,1.1,0.2,1.7,1.5,1.6c0.9-0.1,1.3,0.3,1.3,1.2v7.2c0,1.1-0.5,1.4-1.4,1.3h-14.6
			c-1,0-1.4-0.3-1.4-1.4c0-2.3,0-4.6,0-7c0-0.9,0.2-1.6,1.3-1.5s1.5-0.5,1.4-1.6V387c0-1-0.2-1.5-1.3-1.5c-2.1,0.1-4.2,0-6.2,0
			c-0.8,0-1.2,0.2-1.2,1.1v5.3c0,1,0.4,1.3,1.3,1.2c1.1-0.1,1.3,0.5,1.3,1.4c0,2.3,0,4.7,0,7c0,1-0.2,1.4-1.3,1.4
			c-4.9,0-9.8,0-14.6,0c-1,0-1.4-0.3-1.4-1.4c0.1-2.3,0-4.6,0-7c0-0.9,0.2-1.6,1.3-1.5s1.4-0.6,1.4-1.6
			C629.5,388,629.5,384.5,629.5,381z"/>
		<path class="st0" d="M295.1,358.9h11.8c1.1-0.1,2.2,0.3,3,1.2c1.6,1.7,3.2,3.3,4.9,4.9c0.7,0.6,1.1,1.6,1,2.5
			c-0.1,2.2-0.1,4.5,0,6.7c0.1,1.4-0.5,2.8-1.7,3.7c-2.3,2.1-2.4,2.2-0.1,4.3c1.3,1,1.9,2.6,1.7,4.2c-0.1,1.8,0,3.5,0,5.3
			c0,0.9,0.1,1.6,1.2,1.5s1.5,0.5,1.4,1.6c-0.1,2.3,0,4.6,0,7c0,0.9-0.3,1.3-1.2,1.3H305c-1.2,0-1.2-0.6-1.2-1.5v-12.2
			c0-2.6-0.6-3.3-3.2-3.3h-3.4c-0.8,0-1.1,0.3-1.1,1.1c0,1.4,0.1,2.7,0,4.1s0,2.3,1.7,2c0.6-0.1,0.9,0.3,0.9,0.9v7.9
			c0,1.1-0.8,1-1.5,1h-14.7c-0.9,0-1.2-0.4-1.2-1.3c0-2.4,0-4.8,0-7.2c0-0.9,0.2-1.5,1.2-1.3c1.5,0.2,1.5-0.7,1.5-1.8v-21.1
			c0-1.1-0.2-1.7-1.5-1.5c-1,0.1-1.2-0.4-1.2-1.3c0-2.3,0.1-4.6,0-7c0-1.3,0.4-1.7,1.6-1.6C286.9,358.9,291,358.9,295.1,358.9z
			 M295.9,373.3c0.2,1.4-0.6,3.2,0.4,4.1s2.6,0.2,3.9,0.2c0.3,0,0.7,0,1,0c1.3,0,2.4-1,2.4-2.3v-0.1c0.1-1.1,0-2.2,0-3.3
			c0-2.4-0.8-3.1-3.1-3.1c-1.4,0-3.2-0.6-4.2,0.2C295.3,370,296.2,371.9,295.9,373.3z"/>
		<path class="st0" d="M371.7,382.6v-12c0-1.2-0.2-2-1.7-1.9c-0.9,0.1-1-0.5-1-1.2v-7.4c0-1,0.4-1.2,1.3-1.2H385
			c1,0,1.5,0.3,1.4,1.4c-0.1,2.4,0,4.8,0,7.2c0,1-0.4,1.5-1.4,1.4s-1.2,0.4-1.2,1.3v20.6c0,1.6,0.9,2.4,2.5,2.5c1.4,0,2.9,0,4.3,0
			c1.2,0.2,2.4-0.7,2.5-2c0,0,0,0,0,0c0-0.2,0-0.4,0-0.6v-20.4c0-1.2-0.4-1.6-1.5-1.5c-0.9,0.1-1.1-0.4-1.1-1.1v-7.4
			c0-0.9,0.3-1.3,1.2-1.3h14.6c1.2,0,1.5,0.4,1.5,1.5c-0.1,2.3,0,4.6,0,7c0,0.8,0,1.6-1.1,1.4c-1.6-0.2-1.6,0.8-1.6,1.9
			c0,7.4-0.1,14.9,0,22.3c0.2,1.9-0.6,3.8-2.1,5c-1.4,1.2-2.7,2.5-3.9,3.9c-0.6,0.7-1.5,1.1-2.5,1.1c-5.6,0-11.2,0-16.8,0
			c-0.9,0-1.7-0.3-2.3-0.9c-1.6-1.7-3.2-3.3-4.9-4.9c-0.8-0.7-1.2-1.7-1.1-2.8C371.8,390.4,371.7,386.5,371.7,382.6z"/>
		<path class="st0" d="M70.4,393c2.2,0.6,3-0.5,3.6-2.1c2.6-6.8,5.4-13.5,8.1-20.2c0.3-0.8,1.3-2-0.8-2.1c-0.4,0-0.4-0.6-0.4-1v-7.4
			c0-1.1,0.5-1.4,1.4-1.3h10.5c3.3,0,6.6,0.1,9.8,0c1.3,0,1.7,0.4,1.6,1.7c-0.1,2.1,0,4.3,0,6.5c0,1.6,0,1.6-2,2
			c0.8,2.7,1.8,5.4,3,8c1.9,4.9,4,9.8,5.9,14.7c0.4,1,0.8,1.7,2,1.5s1.3,0.5,1.3,1.4v7c0,1-0.4,1.4-1.4,1.4H99c-1,0-1.5-0.2-1.5-1.3
			v-7.2c0-0.5-0.2-1.1,0.5-1.2c1.4-0.3,0.6-1.2,0.5-1.9c-0.1-0.9-0.7-1.1-1.5-1.1h-9.1c-0.7,0-1.5-0.1-1.6,0.9
			c-0.1,0.8-0.9,1.7,0.6,2c0.5,0.1,0.4,0.6,0.4,1v7.4c0,0.9-0.3,1.3-1.2,1.3H71.4c-0.8,0-1.1-0.4-1.1-1.2
			C70.4,399,70.4,396.2,70.4,393z M92.5,373.4c-1.2,2.9-2.2,5.9-3.1,9h6.2L92.5,373.4z"/>
		<path class="st0" d="M355,369c1.1,2.8,2.1,5.4,3.1,8c1.9,4.8,3.9,9.6,5.8,14.4c0.4,1.1,0.8,2.1,2.3,1.8c0.9-0.1,1.1,0.4,1.1,1.2
			v7.4c0,0.8-0.3,1.2-1.1,1.2h-14.7c-0.8,0-1.2-0.2-1.2-1.1v-7.7c0-0.3,0.1-0.8,0.3-0.9c1.7-0.4,0.6-1.5,0.5-2.2
			c-0.1-1-1-0.8-1.7-0.8h-8.9c-0.8,0-1.4,0.1-1.6,1c-0.1,0.7-0.8,1.6,0.5,1.9c0.6,0.1,0.6,0.7,0.6,1.2v7.2c0,1-0.4,1.4-1.4,1.4
			h-14.1c-1.1,0-1.4-0.5-1.3-1.4v-7c0-1,0.3-1.5,1.3-1.4c0.8,0.2,1.6-0.3,1.8-1.2c2.9-7.5,5.9-15,8.9-22.5c0-0.2,0.1-0.4,0-0.6
			c-1.5,0.1-1.8-0.7-1.7-2c0.1-2.2,0.1-4.3,0-6.5c0-1.2,0.4-1.5,1.5-1.5h11.5c3,0,5.9,0,8.9,0c1.2,0,1.7,0.4,1.6,1.6
			c-0.1,2.2,0,4.3,0,6.5C357.1,368.6,357.1,368.6,355,369z M345.4,374l-0.5,0.1l-2.9,8.4c2.1,0.2,4.2,0.2,6.2,0
			C347.5,379.5,346.4,376.8,345.4,374L345.4,374z"/>
		<path class="st0" d="M529.9,402.9h-8.2c-1,0.1-1.9-0.3-2.5-1.1c-1.6-1.7-3.2-3.3-4.9-4.9c-0.6-0.5-1-1.2-1-2c0.1-1.9,0-3.8,0-5.8
			c0-0.9,0.3-1.3,1.2-1.3h9.6c0.9,0,1.3,0.4,1.2,1.3c0,0.6,0,1.1,0,1.7c0,1.2,1,2.2,2.3,2.3c1.6,0.1,3.2,0,4.8,0
			c0.3,0,0.6-0.1,0.9-0.2c1.2-0.6,1.8-2.7,1.4-5c-0.2-1.4-1.1-2-2.8-2h-9.8c-1.1,0.1-2.2-0.3-3-1.2c-1.6-1.7-3.2-3.3-4.9-4.9
			c-0.7-0.6-1.1-1.6-1-2.5c0-3.3,0-6.6,0-9.8c-0.1-1,0.3-1.9,1-2.5c1.7-1.6,3.3-3.2,4.9-4.9c0.7-0.8,1.7-1.2,2.7-1.2
			c5.4,0.1,10.9,0.1,16.3,0c1-0.1,1.9,0.3,2.5,1c1.7,1.8,3.5,3.5,5.2,5.3c0.6,0.5,0.9,1.2,0.9,1.9v5.8c0,0.8-0.3,1.2-1.1,1.2H536
			c-0.9,0-1.1-0.4-1.1-1.2c0-0.6,0-1.1,0-1.7c0-1.3-1-2.4-2.3-2.4h0h-0.1c-1.5-0.1-3-0.1-4.6,0c-1.3,0-2.3,0.9-2.4,2.2v2.1
			c0,2.4,0.7,3.1,3.2,3.1h9.6c1-0.1,2.1,0.3,2.8,1.1c1.6,1.7,3.3,3.3,5,4.9c0.7,0.7,1.1,1.6,1,2.5c-0.1,3.2-0.1,6.4,0,9.6
			c0.1,1-0.4,2-1.2,2.7c-1.6,1.5-3.2,3.1-4.7,4.8c-0.7,0.9-1.9,1.3-3,1.2C535.4,402.8,532.6,402.9,529.9,402.9z"/>
		<path class="st0" d="M687.3,402.9h-8.4c-0.8,0.1-1.6-0.2-2.2-0.8c-1.7-1.8-3.5-3.5-5.2-5.3c-0.6-0.5-0.9-1.1-0.9-1.9v-5.5
			c0-0.9,0.4-1.3,1.3-1.3h9.3c0.9,0,1.3,0.3,1.3,1.2c0,0.4,0,0.8,0,1.2c0,1.4,1.1,2.5,2.5,2.5l0,0l0,0c1.4,0,2.9,0,4.3,0
			c0.2,0,0.5,0,0.7,0c1.6-0.4,2.2-1.9,1.9-4.9c0-1.2-0.9-2.3-2.2-2.3c0,0,0,0,0,0h-10.3c-1.1,0.1-2.2-0.3-3-1.2
			c-1.6-1.8-3.3-3.4-5-5.1c-0.6-0.6-0.9-1.3-0.8-2.1v-10.3c0-0.8,0.3-1.6,0.9-2.1c1.8-1.8,3.6-3.6,5.4-5.5c0.5-0.5,1.2-0.8,1.9-0.8
			h17c0.7,0,1.4,0.2,1.9,0.8c1.8,1.9,3.7,3.8,5.6,5.6c0.5,0.4,0.7,1,0.7,1.7v5.8c0,0.9-0.3,1.3-1.2,1.3h-9.6c-1,0-1.3-0.4-1.2-1.3
			c0-0.6,0-1.1,0-1.7c-0.1-1.2-1.1-2.2-2.3-2.2c-1.6-0.1-3.2-0.1-4.8,0c-1.2,0.1-2.2,1-2.4,2.2c-0.5,4.1,0.3,5.1,4.5,5.1h8.4
			c0.9-0.1,1.8,0.2,2.4,0.8c1.7,1.8,3.5,3.5,5.3,5.2c0.7,0.6,1,1.5,0.9,2.3v10.1c0,0.9-0.3,1.7-1,2.3c-1.7,1.7-3.4,3.4-5.1,5.1
			c-0.6,0.7-1.5,1-2.3,0.9C692.9,402.9,690.1,402.9,687.3,402.9z"/>
		<path class="st0" d="M567.8,402.9h-14.4c-1.9,0-1.9,0-1.9-1.8v-6.5c0-0.9,0.1-1.6,1.3-1.5s1.5-0.5,1.5-1.6v-21.1
			c0-1.1-0.1-1.9-1.5-1.7c-1,0.1-1.2-0.5-1.2-1.3c0-2.3,0.1-4.6,0-7c-0.1-1.3,0.5-1.6,1.7-1.6h29.2c1.1,0,1.6,0.3,1.5,1.5
			c-0.1,2.9-0.1,5.8,0,8.6c0,1.3-0.5,1.6-1.7,1.6c-2.1-0.1-4.2,0-6.2,0c-0.9,0-2,0.2-2.1-1.3c0-0.6-0.7-0.5-1.2-0.5h-5.3
			c-0.9,0-1.3,0.3-1.3,1.2v4.8c0,0.4-0.2,1,0.5,1.2s1.2,0.2,1.4-0.5s0.6-0.9,1.2-0.9h7.4c0.8,0,1.2,0.3,1.2,1.1v10.5
			c0,0.9-0.5,1-1.2,1h-7.2c-0.7,0-1.2-0.1-1.4-0.9c-0.1-0.6-0.7-0.5-1.2-0.5c-0.7,0.1-0.6,0.6-0.6,1.1v5c0,1,0.5,1.2,1.3,1.2h5.3
			c0.6,0,1.2,0,1.2-0.8c0-1,0.7-1.1,1.5-1.1c2.3,0,4.6,0.1,7,0c1.2,0,1.5,0.4,1.5,1.5c-0.1,2.9-0.1,5.8,0,8.6c0,1.2-0.5,1.5-1.5,1.5
			L567.8,402.9z"/>
		<path class="st0" d="M181.9,368.8c-2,0-3.7,0.1-5.4,0c-1.3-0.1-2,0.3-1.8,1.7c0,0.3-0.1,0.6-0.2,0.9H166c-0.5,0.1-0.9-0.2-1-0.7
			c0-0.1,0-0.2,0-0.3v-10.3c0-0.8,0.4-1.2,1.1-1.1h30c1.7,0,1.7,0,1.7,1.7v0.2c0.5,4.2-0.7,8.4-3.4,11.7
			c-4.4,5.9-8.3,12.1-12.4,18.3c-0.6,0.6-1,1.5-1.1,2.3h5.7c1,0,1.5-0.4,1.4-1.4s0.5-1.3,1.4-1.3c2.3,0,4.6,0.1,7,0
			c1.1,0,1.4,0.4,1.4,1.4c0,3.2-0.1,6.4,0,9.6c0,1.2-0.3,1.5-1.5,1.5c-4.3-0.1-8.6,0-13,0h-16.4c-2.4,0-1.9,0.2-2.2-2.2
			c-0.4-3.9,0.7-7.8,3.2-10.9c4.4-6.1,8.4-12.4,12.6-18.6C181.3,370.5,181.7,369.7,181.9,368.8z"/>
		<path class="st0" d="M588.6,380.9v-12.9c-0.1-1.2,0.4-2.4,1.2-3.2c1.7-1.5,3.3-3.2,4.9-4.9c0.6-0.7,1.4-1,2.3-1h16.8
			c0.8,0,1.6,0.3,2.1,0.9c1.8,1.8,3.6,3.6,5.4,5.4c0.6,0.5,0.9,1.2,0.9,1.9v5.8c0,0.8-0.3,1.2-1.1,1.2h-9.8c-0.8,0-1.1-0.4-1.2-1.1
			c-0.4-4.1-0.5-4.1-4.6-4.1h-1.4c-2.8,0-3.4,0.6-3.4,3.3v18.2c0,2,0.8,2.8,2.7,2.8c1.4,0,2.7,0,4.1,0c1.8-0.1,2.5-0.9,2.6-2.7v-1
			c0-3.5,0-3.5,3.6-3.5h7.2c0.9,0,1.3,0.2,1.3,1.2v7.7c0,0.7-0.4,1.4-0.9,1.9c-1.8,1.8-3.5,3.5-5.2,5.3c-0.6,0.6-1.5,1-2.3,0.9H597
			c-0.9,0-1.7-0.3-2.3-1c-1.9-2-4.5-3.7-5.7-6.1s-0.3-5.2-0.3-7.8C588.6,385.6,588.6,383.2,588.6,380.9z"/>
		<path class="st0" d="M63.7,371.3c-0.3-0.4-0.4-0.8-0.3-1.3c0.1-1.1-0.5-1.3-1.5-1.3c-1.1,0-1.3,0.5-1.3,1.5v21.6
			c0,1,0.3,1.5,1.4,1.4s1.4,0.4,1.3,1.4c0,2.3,0,4.7,0,7c0,1-0.3,1.4-1.3,1.4c-5,0-9.9,0-14.9,0c-1.1,0-1.3-0.5-1.3-1.5v-7
			c0-1,0.3-1.5,1.4-1.4c1.3,0.2,1.4-0.6,1.4-1.6v-21.3c0-0.9-0.1-1.5-1.3-1.5s-1.8,0.1-1.6,1.4c0.1,0.8-0.2,1.2-1,1.2H37
			c-0.8,0-1.1-0.3-1.1-1.1v-10.1c0-0.9,0.3-1.3,1.3-1.3h35.2c0.4,0,0.8,0.3,0.9,0.7c0,0.1,0,0.1,0,0.2v10.5c0.1,0.5-0.2,0.9-0.7,1
			c-0.1,0-0.2,0-0.3,0L63.7,371.3z"/>
		<path class="st0" d="M355.1,119.8v-77c0-3.2-0.4-2.8,2.8-2.8h1c1.3-0.2,1.7,0.5,1.6,1.7c0,0.5,0,1,0,1.4v153.8c0,3.4,0.6,3-3,3
			H356c-0.5,0-0.8-0.4-0.8-0.8c0,0,0-0.1,0-0.1c0-0.6,0-1.3,0-1.9L355.1,119.8z"/>
		<path class="st0" d="M360.4,592.9v76.8c0,2.9,0.4,2.7-2.7,2.7c-2.9,0-2.6,0.3-2.6-2.5v-155c0-1.8,0-1.8,1.9-1.8
			c3.5-0.1,3.5-0.1,3.5,3.4L360.4,592.9z"/>
		<path class="st0" d="M368.5,13v7.7c0.1,0.8-0.2,1.6-0.9,2.1c-0.1,0-0.1,0.1-0.2,0.2c-3,3.2-3,3.2-7.4,3.2h-10.5
			c-1.1,0-1.6-0.3-1.5-1.5c0.1-1,0-1.9,0-2.9c0-0.7-0.1-1.5,1-1.5c0.7,0,0.7-0.5,0.7-1V6.8c0-0.4,0-0.9-0.5-0.9
			c-1.4,0-1.2-1-1.2-1.9c-0.1-4-0.1-4,3.8-4h10.8c1.1-0.1,2.2,0.4,2.9,1.2c2.9,2.9,2.9,2.9,2.9,7L368.5,13z M356.8,13v5.7
			c0,0.5-0.1,1.1,0.3,1.3c1.1,0.4,2.2,0.4,3.3,0.1c0.9-0.2,1-1.1,1-1.9V8.7c0-2.7-0.4-3-3.1-2.9c-1.1,0-1.6,0.3-1.6,1.5
			C356.8,9.2,356.7,11.1,356.8,13L356.8,13z"/>
		<path class="st0" d="M347.9,699.2v-7.4c0-0.9,0.3-1.7,1-2.3c3.1-3.3,3.1-3.3,7.6-3.3c1,0.1,2.1,0.1,3.1,0c3.5-0.7,5.6,1.3,7.7,3.7
			c0.5,0.6,0.7,1.5,0.5,2.2c0,3.8,0.1,7.5,0,11.3c-0.1,1.4,0.4,2.8,1.5,3.8c1.5,1.3,1.4,1.4,0,2.9c-0.5,0.4-0.9,0.9-1.4,1.3
			c-0.6,0.8-1.2,1-1.9,0.1c-0.2-0.4-0.7-0.5-1.1-0.3c-0.1,0.1-0.3,0.2-0.3,0.3c-0.6,0.8-1.6,1.1-2.5,1c-2.8,0-5.6-0.1-8.4,0
			c-0.9,0.1-1.9-0.3-2.5-1c-3.1-3.1-3.1-3.1-3.1-7.4L347.9,699.2z M360.7,699.4c0-1.8,0-3.7,0-5.5c0-1.4-0.5-1.8-1.9-1.9h-1.4
			c-2.2,0-2.4,0.2-2.4,2.5v9.5c0,2.2,0.3,2.5,2.4,2.5h1c1.9-0.1,2.3-0.4,2.3-2.4C360.8,702.6,360.7,701,360.7,699.4z"/>
	</g>
</g>
</svg>
