<svg xmlns="http://www.w3.org/2000/svg" viewBox="0 0 715.56 712.55"><defs><style>.cls-1{fill:#010101;}.cls-2{fill:#040404;}</style></defs><g id="Ebene_2" data-name="Ebene 2"><g id="Ebene_1-2" data-name="Ebene 1"><path class="cls-1" d="M364.57,348.69h-90c-3.35,0-2.9.34-2.9-3,0-19.44-.07-38.88,0-58.32,0-3.52-2.25-7.12-5.46-8.22a13.69,13.69,0,0,0-3.54-.56c-5-.32-7.92-3.38-7.93-8.37V223.65a8.07,8.07,0,0,1,7.74-8.38H423.72a11.42,11.42,0,0,1,8.7,3.69q18.93,19.26,38,38.31a10.07,10.07,0,0,1,3.19,7.67q-.14,31.44,0,62.88a9.66,9.66,0,0,1-3.09,7.47c-3.89,3.8-7.75,7.63-11.52,11.55a5.76,5.76,0,0,1-4.59,1.92Q409.56,348.65,364.57,348.69Zm-15.75-49.45v13.67c0,4.79,3.29,8.26,8,8.3,9.1.08,18.21,0,27.32,0a7.64,7.64,0,0,0,5.42-2.18c1.33-1.28,2.62-2.58,3.94-3.86a9.4,9.4,0,0,0,3.06-7.26c-.09-4.47,0-9,0-13.43,0-8,.69-7.66-5.94-14.21a10.3,10.3,0,0,0-7.71-3.15c-8.31.07-16.62,0-24.93,0a15.44,15.44,0,0,0-1.67.06,7.89,7.89,0,0,0-7.5,8.1C348.79,290,348.82,294.6,348.82,299.24Z"/><path class="cls-1" d="M119,215.29H228.39c6.41-.43,9.56,4.53,9.52,9.46-.17,20.56-.07,41.12-.08,61.68,0,4.53-2.32,7.6-6.43,8.67a11.93,11.93,0,0,1-3.1.19H184.39c-5.58,0-9.46-3.74-9.61-9.39a9,9,0,0,0-1.49-5.19,8.71,8.71,0,0,0-9.81-3.19,8.46,8.46,0,0,0-5.84,7.45V346.9c0,1.76,0,1.79-1.89,1.79H81.84c-.89.05-1.35-.27-1.28-1.23v-61.2a9.18,9.18,0,0,0-1.43-5.46c-2.15-3.13-5.86-4.37-10-3.33a8.16,8.16,0,0,0-6,7.52,12.43,12.43,0,0,1-1.54,6,8.15,8.15,0,0,1-7.45,4.36H9c-5.64,0-8.95-3.33-8.95-8.94,0-20.4.14-40.8-.09-61.2-.07-6.15,3.81-10,9.83-9.93C46.2,215.36,82.59,215.29,119,215.29Z"/><path class="cls-1" d="M691,348.69H504.79c-3.24,0-2.84.37-2.84-2.76q0-40.5-.05-80.88a10.24,10.24,0,0,1,3.18-7.69q14.84-14.85,29.6-29.76c2.82-2.83,5.75-5.57,8.43-8.53a11.16,11.16,0,0,1,8.91-3.78c21.51.07,43,0,64.53,0,16.23,0,32.47.06,48.7,0a11.83,11.83,0,0,1,9.11,3.84c12.15,12.38,24.46,24.62,36.7,36.91.79.79,1.61,1.56,2.34,2.41a8.17,8.17,0,0,1,2.12,5.45V298a7.81,7.81,0,0,1-7.08,8,22.77,22.77,0,0,1-2.86.19H648.22c-.87,0-1.75-.13-2.63-.16-4.21-.15-7.34-4.29-7.23-8.13.08-2.56,0-5.12,0-7.68a8.71,8.71,0,0,0-2.69-6.68c-1.12-1.14-2.25-2.27-3.33-3.45a8.49,8.49,0,0,0-6.62-2.82h-9.59c-7.76,0-15.52.06-23.27,0a9.68,9.68,0,0,0-7.9,3.24c-1,1.14-2.16,2.14-3.22,3.23a8.78,8.78,0,0,0-2.64,6.46c.06,9.68,0,19.36,0,29,0,5.35,3.3,8.7,8.65,8.72h33.11c15,0,30.07.05,45.1,0a10.21,10.21,0,0,1,7.88,3.28c5.07,5.21,10.28,10.3,15.42,15.44A6.63,6.63,0,0,1,691,348.69Z"/><path class="cls-1" d="M608.78,496.54c-19,0-38.06-.05-57.08,0a11,11,0,0,1-8.5-3.56q-18.59-18.72-37.29-37.32a30.43,30.43,0,0,1-2.41-2.66,7.23,7.23,0,0,1-1.57-4.67V415c0-1.79,0-1.82,1.84-1.82H577.4c1.8,0,1.81,0,1.82,1.83s.09,3.84,0,5.76a7.62,7.62,0,0,0,2.45,6c1.35,1.36,2.73,2.69,4.12,4a8.26,8.26,0,0,0,5.85,2.36h34.54a8.13,8.13,0,0,0,5.83-2.42c1.32-1.27,2.61-2.58,3.88-3.91a7.85,7.85,0,0,0,2.4-6.05c-.1-2.07,0-4.16,0-6.24,0-1,.37-1.46,1.39-1.37h73.15c3.15,0,2.7-.3,2.71,2.64,0,10.4-.06,20.8,0,31.19a10.12,10.12,0,0,1-3.07,7.8q-12,11.88-24,23.87c-4.86,4.86-9.78,9.66-14.55,14.6a10.16,10.16,0,0,1-7.86,3.32C647,496.5,627.88,496.54,608.78,496.54Z"/><path class="cls-1" d="M118.92,496.51h-47a8.42,8.42,0,0,1-8.26-5.69,8.76,8.76,0,0,1-.33-2.6V441.43c0-4.84,3.19-8.18,8-8.27,3.45-.06,6.24-1.1,8.07-4.19a8.64,8.64,0,0,0,1.12-4.59v-9.6c0-1.25.35-1.68,1.61-1.64,2.48.08,5,0,7.44,0h66c2.2,0,2.08-.13,2.08,2.08v9.12c.05,5.2,3.26,8.58,8.48,8.74a8.24,8.24,0,0,1,7.63,4.48,8.06,8.06,0,0,1,.91,3.91V488c0,5-3.39,8.4-8.45,8.41H123.33Z"/><path class="cls-1" d="M310,496.51H263.5c-3.21,0-5.77-1.09-7.49-3.86a7.51,7.51,0,0,1-1.2-4.07V441.07a7.86,7.86,0,0,1,7.47-7.89c.72-.06,1.44,0,2.15-.12a8,8,0,0,0,7.23-7.93c.06-3.44.06-6.87,0-10.31,0-1.26.36-1.79,1.61-1.64h73c3,0,2.61-.16,2.62,2.52v9.36a8,8,0,0,0,7.36,8c.56.06,1.12.05,1.68.08a7.94,7.94,0,0,1,7.82,8.06v47c0,4.85-3.45,8.21-8.4,8.21Q333.67,496.55,310,496.51Z"/><path class="cls-1" d="M443.56,496.51H404.93a8,8,0,0,1-7.67-4.76,9.35,9.35,0,0,1-.69-4.22v-72.2c0-2.07,0-2.09,2.1-2.09H471.6c2.07,0,2.08,0,2.09,2.06v9.12c0,5.22,3.2,8.58,8.44,8.75,3,.1,5.45,1.08,7.14,3.64a7.54,7.54,0,0,1,1.33,4.28v47.52c0,4.69-3.47,7.92-8.39,7.93Q462.88,496.54,443.56,496.51Z"/><path class="cls-2" d="M461.86,393.41c0,2.67-.05,5.38,0,8.09,0,1.21-.48,1.47-1.57,1.46-3.59,0-7.19,0-10.79,0h-3.59c-1,0-1.5-.19-1.47-1.31.05-2.4,0-4.8,0-7.19,0-.89.26-1.39,1.22-1.29s1.52-.14,1.5-1.27c0-3.17,0-6.34-.25-9.61-3.42,4.76-6.21,9.88-9.57,15.08-3.14-5.19-6.17-10.18-9.21-15.18-.81.49-.49,1.11-.5,1.61v7.91c0,.92.13,1.62,1.28,1.46s1.48.45,1.45,1.54c-.06,2.32,0,4.64,0,7,0,.91-.3,1.29-1.25,1.29H414.25c-.9,0-1.3-.28-1.29-1.23v-8.39a6,6,0,0,1,1.12-.16c1.13.13,1.53-.3,1.53-1.48V370.4c0-1-.1-1.77-1.39-1.6-.94.12-1.27-.33-1.26-1.24v-7.44c0-1,.42-1.22,1.31-1.22,3.83,0,7.67.07,11.5,0a2.37,2.37,0,0,1,2.2,1.52l8,13.37a5.31,5.31,0,0,0,1.47,2,5.76,5.76,0,0,0,1.43-2.05c2.65-4.38,5.3-8.75,7.86-13.17a2.81,2.81,0,0,1,2.82-1.67c3.59.1,7.19.06,10.79,0,1.08,0,1.61.25,1.57,1.47-.08,2.39,0,4.79,0,7.19,0,.71-.13,1.34-1,1.22-1.53-.19-1.63.67-1.63,1.87v19.9C459.23,393,459.23,393,461.86,393.41Z"/><path class="cls-2" d="M133.69,383.3v8.79c0,.84.45,1.16,1.22,1.06,1.22-.15,1.47.46,1.44,1.55-.06,2.31,0,4.63,0,7,0,.89-.26,1.3-1.22,1.29H120c-.87,0-1.08-.38-1.07-1.16V394.4c0-1,.39-1.3,1.28-1.19,1.05.13,1.39-.34,1.38-1.36V370.26c0-1.16-.39-1.62-1.53-1.47-.82.11-1.13-.28-1.13-1.09V360c0-.82.35-1.12,1.15-1.11h12.22c1.15,0,1.46.84,1.89,1.57q4.77,8.19,9.49,16.38c.42.72.89,1.42,1.36,2.16.76-.5.5-1.11.51-1.61v-7.19c0-1-.22-1.57-1.33-1.41s-1.34-.42-1.32-1.4c0-2.31,0-4.63,0-7,0-1.09.24-1.58,1.45-1.56,4.8.06,9.59,0,14.39,0,1.08,0,1.6.25,1.55,1.46-.08,2.32,0,4.64,0,7,0,.91-.11,1.62-1.27,1.48s-1.49.45-1.49,1.54v21.34c0,1.12.36,1.67,1.52,1.53.93-.11,1.26.33,1.24,1.25v7.19c0,.84-.16,1.35-1.16,1.34H146.69c-1.15,0-1.44-.82-1.87-1.56L137.62,389c-1.11-1.92-2.24-3.83-3.36-5.74Z"/><path class="cls-2" d="M629.47,381V370.65c0-1.13,0-2.13-1.59-1.92-.82.11-1.12-.36-1.12-1.15v-7.43c0-.91.32-1.31,1.25-1.29H642.4c1.65,0,1.67.05,1.69,1.76v6.71c0,1-.23,1.55-1.34,1.41-.91-.12-1.29.29-1.26,1.22v3.83c0,.79.26,1.16,1.1,1.15h6.47c.82,0,1.16-.31,1.13-1.13,0-1-.06-2.08,0-3.11.09-1.3-.07-2.25-1.74-2-.74.11-1-.41-1-1.05V360c0-.83.38-1.13,1.16-1.12h15.11c1,0,1.19.51,1.18,1.36v7c0,1.06-.2,1.73-1.44,1.58s-1.29.54-1.29,1.47v21.34c0,1.08.25,1.7,1.46,1.56.92-.1,1.28.33,1.27,1.25v7.19c0,1.08-.45,1.35-1.44,1.34H648.89c-1,0-1.43-.3-1.41-1.36,0-2.32,0-4.64,0-6.95,0-.93.15-1.61,1.29-1.46s1.45-.54,1.41-1.59V387c0-1-.19-1.49-1.31-1.45-2.08.06-4.15,0-6.23,0-.79,0-1.18.24-1.17,1.08v5.28c0,.95.4,1.32,1.29,1.21,1.12-.14,1.33.45,1.31,1.41-.05,2.32-.05,4.66,0,7,0,1-.21,1.43-1.31,1.42-4.88-.05-9.75,0-14.63,0-1,0-1.44-.27-1.41-1.35.06-2.32,0-4.64,0-6.95,0-.94.15-1.61,1.29-1.48s1.44-.57,1.43-1.6C629.47,388,629.47,384.48,629.47,381Z"/><path class="cls-2" d="M295.07,358.86h11.75a3.54,3.54,0,0,1,3,1.17c1.56,1.71,3.22,3.33,4.9,4.93a3.07,3.07,0,0,1,1,2.52c-.07,2.23-.13,4.48,0,6.71a4.25,4.25,0,0,1-1.66,3.72c-2.34,2.11-2.37,2.24-.07,4.32a4.65,4.65,0,0,1,1.72,4.18c-.14,1.75,0,3.52,0,5.28,0,.88.06,1.64,1.25,1.49s1.46.49,1.43,1.56c-.06,2.31,0,4.63,0,6.95,0,.92-.32,1.28-1.25,1.28H305c-1.18,0-1.25-.61-1.25-1.51V389.23c0-2.63-.63-3.26-3.22-3.28h-3.35c-.83,0-1.12.33-1.1,1.14,0,1.36.06,2.72,0,4.08s0,2.27,1.73,2c.58-.08.88.27.88.85v7.92c0,1.13-.79,1-1.49,1H282.53c-.93,0-1.25-.36-1.24-1.28,0-2.4,0-4.79,0-7.19,0-.86.18-1.45,1.17-1.31,1.48.2,1.49-.71,1.49-1.77V370.28c0-1.06-.23-1.71-1.47-1.55-1,.13-1.2-.44-1.19-1.3,0-2.32.07-4.64,0-6.95-.05-1.28.39-1.67,1.63-1.65C286.92,358.9,291,358.86,295.07,358.86Zm.87,14.45c.23,1.4-.61,3.18.43,4.1s2.6.19,3.94.25a5.57,5.57,0,0,0,1,0,2.35,2.35,0,0,0,2.38-2.31v-.11c.06-1.11,0-2.22,0-3.33,0-2.38-.75-3.15-3.09-3.15-1.42,0-3.21-.58-4.17.24C295.28,370,296.18,371.85,295.94,373.31Z"/><path class="cls-2" d="M371.74,382.59v-12c0-1.22-.17-2-1.67-1.85-.88.11-1-.48-1-1.21v-7.44c0-1,.42-1.24,1.29-1.23H385c1,0,1.45.28,1.42,1.36-.06,2.39-.05,4.79,0,7.19,0,1-.35,1.48-1.38,1.35s-1.23.4-1.22,1.27v20.64c0,1.65.86,2.43,2.53,2.49q2.16.07,4.32,0a2.25,2.25,0,0,0,2.51-2,2.1,2.1,0,0,0,0-.56V370.24c0-1.16-.41-1.62-1.54-1.49-.86.1-1.1-.38-1.1-1.15v-7.44c0-.91.31-1.31,1.24-1.29h14.59c1.16,0,1.54.38,1.5,1.53-.07,2.31,0,4.63,0,7,0,.76,0,1.57-1.06,1.41-1.65-.22-1.58.82-1.57,1.93,0,7.44-.07,14.87,0,22.31a5.81,5.81,0,0,1-2.09,5,53,53,0,0,0-3.9,3.89,3.06,3.06,0,0,1-2.51,1.09q-8.38-.06-16.79,0a3,3,0,0,1-2.34-.94c-1.6-1.67-3.22-3.34-4.91-4.92a3.38,3.38,0,0,1-1.08-2.75C371.77,390.43,371.74,386.51,371.74,382.59Z"/><path class="cls-2" d="M70.36,393.05c2.23.58,3-.47,3.57-2.09,2.63-6.77,5.41-13.48,8.11-20.22.34-.84,1.26-2-.75-2.1-.43,0-.39-.63-.39-1v-7.43c0-1.09.46-1.35,1.44-1.34H92.89c3.27,0,6.55.06,9.82,0,1.31,0,1.66.43,1.61,1.67-.09,2.15,0,4.31,0,6.47,0,1.59,0,1.59-2,2a68.68,68.68,0,0,0,3,8c1.92,4.91,4,9.76,5.92,14.66.39,1,.76,1.73,2,1.54s1.31.51,1.29,1.44v7c0,1-.37,1.39-1.4,1.38H99c-1,0-1.49-.2-1.46-1.31v-7.2c0-.45-.15-1.06.46-1.21,1.42-.34.57-1.17.46-1.85-.14-.89-.7-1.11-1.53-1.1H87.85c-.71,0-1.47-.11-1.61.93-.11.79-.86,1.73.63,2,.51.11.42.61.42,1v7.43c0,.92-.3,1.29-1.24,1.28H71.43c-.85,0-1.1-.39-1.1-1.17C70.37,399,70.36,396.2,70.36,393.05Zm22.11-19.6a86.78,86.78,0,0,0-3.08,9h6.23Z"/><path class="cls-2" d="M355,369c1.08,2.79,2.07,5.38,3.11,8,1.93,4.81,3.9,9.61,5.82,14.43.44,1.09.81,2.08,2.31,1.84.86-.14,1.06.41,1.06,1.16v7.44c0,.79-.26,1.16-1.09,1.16H351.54c-.78,0-1.18-.25-1.17-1.1v-7.67c0-.29.12-.81.28-.85,1.72-.42.59-1.48.48-2.22-.15-1-1-.8-1.73-.81h-8.87c-.8,0-1.44.1-1.58,1-.11.7-.8,1.57.53,1.9.61.14.57.69.57,1.16v7.19c0,1-.35,1.41-1.39,1.4H324.52c-1.08,0-1.35-.46-1.33-1.44v-7c0-1,.26-1.54,1.34-1.4a1.52,1.52,0,0,0,1.79-1.16c2.94-7.5,5.92-15,8.88-22.48a2.14,2.14,0,0,0,.05-.62c-1.49.12-1.76-.73-1.69-2.05.1-2.16.08-4.32,0-6.47,0-1.16.36-1.55,1.51-1.54h11.5c3,0,5.91.05,8.87,0,1.25,0,1.68.37,1.62,1.64-.09,2.16,0,4.32,0,6.48C357.08,368.57,357.06,368.57,355,369ZM345.37,374l-.46.09L342,382.49a36.24,36.24,0,0,0,6.25,0c-.78-3-1.88-5.69-2.88-8.45Z"/><path class="cls-2" d="M529.92,402.89h-8.16a3.08,3.08,0,0,1-2.52-1.07c-1.6-1.67-3.25-3.3-4.9-4.94a2.6,2.6,0,0,1-1-2.05c.06-1.92,0-3.84,0-5.76,0-.9.3-1.28,1.24-1.26h9.6c.94,0,1.29.39,1.23,1.29a9.43,9.43,0,0,0,0,1.68,2.39,2.39,0,0,0,2.29,2.3c1.6.07,3.2,0,4.8,0a2.12,2.12,0,0,0,.93-.18c1.25-.57,1.83-2.66,1.41-5-.25-1.37-1.07-2-2.76-2h-9.83a3.55,3.55,0,0,1-3-1.17c-1.58-1.7-3.23-3.34-4.92-4.93a3.05,3.05,0,0,1-1-2.53q.06-4.92,0-9.84a3.1,3.1,0,0,1,1-2.54c1.69-1.58,3.3-3.25,4.89-4.94a3.47,3.47,0,0,1,2.73-1.17q8.16.08,16.32,0a3.23,3.23,0,0,1,2.54,1c1.7,1.8,3.46,3.54,5.23,5.28a2.42,2.42,0,0,1,.87,1.88v5.76c0,.8-.3,1.16-1.12,1.16H536c-.86,0-1.13-.39-1.1-1.16a11.78,11.78,0,0,0,0-1.68,2.35,2.35,0,0,0-2.34-2.36h-.13q-2.28-.09-4.56,0a2.33,2.33,0,0,0-2.41,2.21V373c0,2.38.73,3.07,3.19,3.09h9.6a3.42,3.42,0,0,1,2.76,1.1c1.59,1.68,3.28,3.27,5,4.86a3.16,3.16,0,0,1,1,2.54c-.06,3.2-.07,6.4,0,9.6a3.34,3.34,0,0,1-1.15,2.73c-1.63,1.54-3.23,3.11-4.74,4.76a3.46,3.46,0,0,1-3,1.17C535.36,402.8,532.64,402.89,529.92,402.89Z"/><path class="cls-2" d="M687.28,402.89h-8.39a2.62,2.62,0,0,1-2.15-.79c-1.7-1.8-3.45-3.55-5.19-5.32a2.46,2.46,0,0,1-.91-1.86V389.4c0-.94.38-1.28,1.28-1.27h9.35c.92,0,1.35.31,1.26,1.25a8,8,0,0,0,0,1.2,2.54,2.54,0,0,0,2.55,2.53h0c1.44.05,2.88,0,4.32,0a2.81,2.81,0,0,0,.71,0c1.56-.35,2.15-1.89,1.87-4.85a2.23,2.23,0,0,0-2.17-2.29H679.48a3.52,3.52,0,0,1-3-1.17c-1.62-1.76-3.33-3.44-5-5.13a2.71,2.71,0,0,1-.84-2.13V367.23a2.75,2.75,0,0,1,.88-2.12c1.81-1.8,3.6-3.62,5.37-5.48a2.49,2.49,0,0,1,1.93-.75h17a2.47,2.47,0,0,1,1.92.77c1.83,1.89,3.69,3.77,5.57,5.62a2.19,2.19,0,0,1,.74,1.67v5.76c0,.91-.29,1.3-1.24,1.28h-9.6c-1,0-1.27-.42-1.22-1.3a9.43,9.43,0,0,0,0-1.68,2.32,2.32,0,0,0-2.33-2.22c-1.6-.06-3.2-.07-4.8,0A2.56,2.56,0,0,0,682.5,371c-.54,4.15.34,5.15,4.54,5.15h8.4a3,3,0,0,1,2.39.81c1.72,1.78,3.5,3.5,5.31,5.19a2.87,2.87,0,0,1,.92,2.34v10.08a2.88,2.88,0,0,1-1,2.3c-1.72,1.67-3.43,3.35-5.08,5.1a2.84,2.84,0,0,1-2.33.92C692.88,402.86,690.08,402.89,687.28,402.89Z"/><path class="cls-2" d="M567.83,402.89H553.44c-1.87,0-1.89,0-1.9-1.78v-6.48c0-.89.08-1.63,1.26-1.5s1.46-.48,1.45-1.56v-21.1c0-1.12-.14-1.9-1.53-1.72-1,.13-1.18-.52-1.17-1.34,0-2.32.07-4.64,0-7-.06-1.32.51-1.6,1.69-1.59h29.24c1.09,0,1.58.27,1.55,1.48-.07,2.88-.08,5.76,0,8.63,0,1.34-.53,1.61-1.7,1.58-2.08-.07-4.16,0-6.23,0-.94,0-2,.24-2.07-1.28,0-.61-.73-.49-1.19-.49h-5.27c-.88,0-1.32.26-1.29,1.22v4.8c0,.44-.16,1,.49,1.17s1.21.21,1.36-.52.58-.85,1.19-.85h7.43c.81,0,1.16.28,1.15,1.1v10.55c0,.89-.48,1-1.22,1h-7.19c-.69,0-1.22-.08-1.39-.94-.11-.56-.72-.53-1.19-.47-.66.07-.64.6-.64,1.08v5c0,1,.45,1.22,1.32,1.2h5.27c.56,0,1.2,0,1.24-.76,0-1,.7-1.07,1.48-1.07,2.32,0,4.64.06,6.95,0,1.19,0,1.5.42,1.48,1.54-.06,2.87-.08,5.75,0,8.63,0,1.23-.47,1.46-1.55,1.45Z"/><path class="cls-2" d="M181.94,368.8c-2,0-3.71.06-5.44,0-1.31-.07-2,.32-1.78,1.72a2.76,2.76,0,0,1-.19.86H166a.87.87,0,0,1-1-1V360.07c0-.83.36-1.17,1.15-1.12h30c1.69,0,1.69,0,1.74,1.7v.24a15.58,15.58,0,0,1-3.35,11.68c-4.4,5.88-8.28,12.15-12.36,18.26a4,4,0,0,0-1.06,2.33h5.69c1,0,1.49-.35,1.37-1.39s.48-1.33,1.43-1.32c2.32,0,4.64.06,7,0,1.08,0,1.36.42,1.35,1.42,0,3.2-.06,6.4,0,9.59,0,1.16-.33,1.5-1.49,1.49-4.31-.06-8.63,0-13,0H167.1c-2.36,0-1.94.17-2.19-2.23a15.09,15.09,0,0,1,3.17-10.92c4.42-6.06,8.44-12.42,12.62-18.65A6.56,6.56,0,0,0,181.94,368.8Z"/><path class="cls-2" d="M588.62,380.86V367.91a3.83,3.83,0,0,1,1.24-3.18c1.71-1.55,3.32-3.22,4.91-4.91a3,3,0,0,1,2.32-1h16.78a2.62,2.62,0,0,1,2.1.88c1.77,1.84,3.59,3.64,5.41,5.43a2.46,2.46,0,0,1,.88,1.88v5.75c0,.79-.29,1.16-1.12,1.16h-9.83c-.82,0-1.07-.35-1.15-1.13-.43-4.09-.45-4.09-4.59-4.09h-1.44c-2.78,0-3.42.63-3.43,3.34v18.22c0,1.95.84,2.76,2.74,2.81,1.36,0,2.72.05,4.08,0,1.75-.06,2.53-.89,2.64-2.69v-1c0-3.46,0-3.46,3.6-3.46H621c.88,0,1.32.25,1.31,1.22v7.67a2.38,2.38,0,0,1-.93,1.85c-1.75,1.75-3.53,3.47-5.23,5.27a2.9,2.9,0,0,1-2.34.9H597a3,3,0,0,1-2.32-1c-1.92-2-4.46-3.71-5.69-6.08s-.27-5.17-.32-7.8C588.58,385.65,588.62,383.25,588.62,380.86Z"/><path class="cls-2" d="M63.69,371.31a1.6,1.6,0,0,1-.34-1.3c.12-1.14-.54-1.26-1.47-1.28-1.1,0-1.32.49-1.32,1.46v21.58c0,1,.32,1.52,1.37,1.39s1.37.41,1.35,1.4c-.05,2.32-.05,4.66,0,7,0,1-.29,1.43-1.35,1.43q-7.44-.06-14.86,0c-1.1,0-1.35-.49-1.33-1.46v-6.95c0-1,.3-1.53,1.38-1.38,1.27.17,1.41-.58,1.4-1.6V370.26c0-.91-.12-1.53-1.28-1.5s-1.75.15-1.59,1.42c.1.77-.17,1.2-1,1.19H37c-.81,0-1.13-.32-1.12-1.14V360.16c0-.93.35-1.32,1.27-1.26H72.32a.81.81,0,0,1,.87.74.48.48,0,0,1,0,.17v10.55a.87.87,0,0,1-1,1Z"/><path class="cls-2" d="M355.11,119.8v-77c0-3.24-.36-2.75,2.8-2.79h1c1.33-.2,1.69.47,1.57,1.66q0,.72,0,1.44V196.9c0,3.45.59,3-3,3H356a.83.83,0,0,1-.83-.91c0-.58,0-1.28,0-1.92Z"/><path class="cls-2" d="M360.41,592.92v76.8c0,2.92.35,2.67-2.73,2.67-2.86,0-2.6.27-2.6-2.54V514.8c0-1.79,0-1.79,1.87-1.82,3.46-.07,3.46-.07,3.46,3.37Z"/><path class="cls-2" d="M368.52,13v7.66a2.21,2.21,0,0,1-.85,2.1c-.06,0-.1.12-.16.18-3,3.17-3,3.17-7.38,3.17H349.6c-1.11,0-1.64-.29-1.55-1.48.07-1,0-1.92,0-2.88,0-.73-.07-1.48,1-1.5.66,0,.68-.54.68-1V6.8c0-.39,0-.91-.52-.93-1.36,0-1.16-1-1.18-1.87-.1-4-.1-4,3.82-4h10.77a3.71,3.71,0,0,1,2.94,1.23c2.89,2.92,2.92,2.89,2.92,7Zm-11.74,0v5.74c0,.47-.15,1.15.28,1.33a5.51,5.51,0,0,0,3.29.11c.94-.2,1-1.07,1-1.91V8.71c0-2.68-.38-3-3.06-2.93-1.1,0-1.6.32-1.56,1.49.09,1.9,0,3.81,0,5.72Z"/><path class="cls-2" d="M347.89,699.22v-7.43a3,3,0,0,1,1-2.32c3.09-3.29,3.08-3.3,7.57-3.3a16.16,16.16,0,0,0,3.11,0c3.54-.73,5.63,1.33,7.66,3.68a3,3,0,0,1,.53,2.25c0,3.75.07,7.51,0,11.26a4.41,4.41,0,0,0,1.53,3.76c1.49,1.35,1.43,1.43,0,2.9a15.83,15.83,0,0,0-1.37,1.34c-.63.76-1.22,1-1.93.11a.78.78,0,0,0-1.38,0,2.77,2.77,0,0,1-2.55,1c-2.79,0-5.59-.06-8.38,0a3.18,3.18,0,0,1-2.52-1c-3.13-3.08-3.15-3.06-3.15-7.39Zm12.83.21c0-1.83,0-3.66,0-5.49-.05-1.42-.45-1.78-1.87-1.88h-1.43c-2.22,0-2.4.21-2.41,2.51v9.55c0,2.22.27,2.47,2.44,2.52h.95c1.93-.06,2.3-.43,2.33-2.44C360.75,702.61,360.73,701,360.72,699.43Z"/></g></g></svg>